<?xml version="1.0" standalone="no"?>
<!DOCTYPE svg PUBLIC "-//W3C//DTD SVG 20010904//EN"
 "http://www.w3.org/TR/2001/REC-SVG-20010904/DTD/svg10.dtd">
<svg version="1.0" xmlns="http://www.w3.org/2000/svg"
 width="236.000000pt" height="236.000000pt" viewBox="0 0 236.000000 236.000000"
 preserveAspectRatio="xMidYMid meet">

<g transform="translate(0.000000,236.000000) scale(0.100000,-0.100000)"
fill="#000000" stroke="none">
<path d="M1111 2287 c-37 -38 -81 -125 -81 -162 0 -7 -10 -17 -21 -20 -37 -12
-111 -88 -130 -133 -22 -52 -24 -92 -5 -147 7 -22 16 -53 20 -70 5 -24 1 -20
-23 21 -42 73 -129 149 -186 163 -74 19 -80 13 -78 -71 6 -152 33 -308 54
-308 5 0 9 -17 9 -37 0 -50 23 -133 46 -168 10 -15 36 -36 57 -45 l40 -18 -33
-17 c-17 -9 -33 -15 -34 -13 -1 2 -9 20 -19 41 -11 24 -33 48 -61 65 l-44 27
-7 85 c-9 105 -36 181 -77 215 -39 33 -83 31 -110 -5 -30 -41 -15 -78 63 -158
42 -42 69 -78 69 -91 0 -20 -1 -21 -35 -7 -33 14 -35 14 -55 -11 -11 -14 -20
-34 -20 -43 0 -10 -11 -38 -25 -61 -29 -52 -34 -133 -9 -181 13 -24 14 -41 6
-86 -12 -67 -7 -133 11 -169 8 -16 17 -54 20 -87 5 -52 3 -64 -24 -111 -41
-72 -41 -155 0 -240 30 -64 80 -115 112 -115 11 0 25 -13 35 -32 54 -108 161
-144 291 -98 59 21 74 18 108 -20 46 -52 133 -72 205 -46 31 11 38 11 61 -7
23 -16 32 -18 61 -8 19 6 47 24 62 40 25 26 32 28 59 20 81 -23 209 -2 295 48
24 14 46 22 49 20 7 -7 -54 -67 -68 -67 -6 0 -9 -10 -7 -22 4 -31 47 -38 55
-9 4 14 13 21 30 21 l25 0 -23 -20 -24 -20 27 6 c16 3 36 3 45 -2 27 -11 126
-4 143 11 21 18 107 26 120 10 20 -25 -13 -47 -82 -54 -36 -4 -78 -15 -93 -25
-16 -10 -46 -19 -66 -19 -21 0 -36 -4 -33 -8 9 -15 73 -10 112 10 20 10 60 21
89 24 71 8 93 21 93 55 0 41 -15 50 -70 44 -41 -4 -50 -2 -50 11 0 8 -12 30
-27 47 -26 32 -28 32 -90 26 -35 -4 -68 -4 -73 -1 -5 3 13 26 40 51 70 65 110
149 110 230 0 56 3 65 23 75 12 6 33 21 46 33 30 27 91 122 91 141 0 15 -6 17
-65 19 -23 1 -31 6 -33 23 -4 26 -37 53 -64 53 -21 0 -21 -1 -7 54 9 37 17 47
51 62 68 31 96 86 64 129 -11 16 -11 24 0 52 33 78 4 178 -56 190 -20 4 -30
11 -30 24 0 27 -16 32 -49 14 -39 -20 -51 -19 -51 3 1 35 25 52 74 52 85 0
134 34 155 108 11 38 5 46 -20 21 -10 -10 -25 -16 -34 -13 -20 8 -20 64 1 90
14 18 15 15 11 -34 -3 -44 -2 -51 9 -40 19 19 35 128 19 128 -27 0 -65 -42
-66 -73 -1 -25 -3 -27 -6 -9 -3 13 0 36 6 53 5 16 8 29 5 29 -3 0 -30 -12 -60
-27 -65 -32 -95 -64 -120 -129 -15 -39 -16 -54 -7 -98 6 -28 14 -58 17 -67 5
-10 -4 -20 -29 -32 -20 -9 -38 -24 -41 -32 -14 -36 -19 -8 -14 87 4 78 10 110
24 131 10 15 29 62 41 105 13 42 35 110 50 151 14 40 23 76 20 79 -3 3 -30 7
-60 10 -83 7 -151 -30 -205 -110 -22 -33 -40 -69 -40 -79 0 -10 -4 -21 -10
-24 -18 -11 -11 56 9 89 35 59 43 101 31 160 -19 92 -88 166 -155 166 -15 0
-25 6 -25 14 0 17 -72 76 -92 76 -8 0 -29 18 -47 40 -32 40 -82 71 -132 84
-22 5 -34 -1 -68 -37z m96 -18 c53 -26 90 -69 99 -115 9 -48 -9 -82 -51 -100
-32 -13 -39 -13 -69 1 -45 21 -63 64 -46 105 14 34 21 36 54 15 28 -18 51 -68
42 -90 -3 -8 -1 -15 3 -15 13 0 21 27 21 67 0 26 -8 43 -34 69 -49 49 -72 45
-101 -18 -31 -67 -31 -100 -1 -135 21 -24 31 -28 79 -28 69 0 105 24 128 85
14 37 18 41 26 26 38 -68 -72 -145 -190 -133 -122 11 -152 119 -66 243 34 50
45 52 106 23z m193 -199 c0 -27 -34 -72 -68 -89 -20 -10 -80 -24 -132 -30
-140 -17 -166 -28 -239 -96 -65 -61 -68 -45 -5 25 50 55 103 76 233 94 122 17
153 30 179 77 17 29 32 38 32 19z m-359 -56 c11 -14 10 -18 -6 -27 -11 -6 -42
-31 -68 -56 -39 -36 -50 -42 -58 -30 -30 48 21 129 84 129 19 0 40 -7 48 -16z
m496 -13 c16 -12 37 -36 47 -52 15 -25 16 -35 6 -59 -12 -30 -31 -43 -46 -32
-5 4 -26 33 -47 65 -34 52 -58 69 -71 49 -2 -4 16 -38 42 -75 54 -78 81 -91
118 -56 32 30 31 5 -1 -27 -23 -22 -27 -23 -57 -11 -23 9 -47 34 -77 79 l-45
67 -29 -15 -29 -16 23 -26 c39 -44 82 -85 124 -117 l38 -31 1 -154 c1 -170 2
-167 -79 -305 -26 -46 -35 -71 -35 -108 0 -125 88 -167 234 -112 78 29 128 32
175 7 77 -39 103 -135 50 -188 -50 -50 -139 -27 -139 36 0 35 23 54 55 46 18
-5 25 -13 25 -32 0 -21 4 -25 23 -22 35 5 33 41 -3 72 -17 14 -41 26 -53 26
-31 0 -85 -36 -99 -65 -8 -18 -33 -33 -92 -56 -144 -57 -276 -41 -364 44 -47
46 -69 84 -102 182 -37 108 -60 147 -105 171 -63 33 -98 167 -89 336 5 91 9
109 35 152 17 27 28 51 25 53 -2 2 -22 -14 -44 -37 -45 -47 -66 -39 -26 10 40
46 87 66 209 85 130 20 208 52 261 107 35 35 43 39 75 35 20 -3 50 -15 66 -26z
m-797 -138 c54 -22 105 -78 140 -155 32 -68 32 -70 21 -144 -6 -41 -11 -95
-11 -120 0 -110 -87 -155 -139 -71 -20 32 -46 159 -39 191 2 9 -8 22 -22 29
-29 15 -45 57 -54 146 l-6 64 50 -5 c78 -8 121 -47 169 -158 10 -22 11 -19 6
18 -6 46 -36 114 -64 146 -23 26 -82 54 -130 62 -23 4 -41 11 -41 16 0 12 73
1 120 -19z m1110 -33 c11 -7 0 -10 -37 -10 -88 0 -139 -32 -190 -118 -33 -56
-24 -64 12 -12 43 63 115 98 171 84 23 -6 25 -10 20 -37 -16 -81 -30 -113 -64
-146 -35 -35 -36 -38 -33 -103 5 -111 -47 -194 -116 -186 -43 5 -59 46 -43
116 7 31 12 95 11 143 0 75 3 94 25 136 34 63 70 101 119 124 44 20 101 24
125 9z m125 -267 c-6 -26 -78 -78 -94 -68 -17 10 -13 83 5 121 10 21 32 43 53
54 l36 18 3 -51 c2 -28 1 -61 -3 -74z m-1438 85 c11 -13 28 -38 38 -57 19 -39
34 -181 18 -181 -6 0 -13 13 -16 28 -3 15 -31 58 -61 96 -39 47 -56 76 -56 96
0 44 44 54 77 18z m1502 -123 c-13 -12 -41 -26 -63 -30 l-38 -6 34 30 c62 54
122 60 67 6z m-1453 -152 c55 -30 94 -59 106 -78 22 -36 23 -112 3 -139 -18
-24 -19 -36 -2 -36 7 0 28 25 47 56 18 31 50 66 69 79 46 29 67 52 85 95 l14
34 16 -38 16 -38 -44 -43 c-55 -53 -74 -108 -58 -164 11 -35 9 -43 -22 -104
-41 -79 -52 -141 -37 -203 14 -57 8 -66 -24 -33 -24 24 -24 25 -9 69 16 46 14
167 -4 232 l-7 28 -35 -18 c-23 -11 -42 -32 -55 -59 -12 -24 -40 -63 -64 -87
-38 -39 -68 -106 -54 -120 3 -3 18 1 33 9 21 11 27 20 23 35 -7 26 20 56 57
63 26 6 28 9 23 39 -3 24 1 40 15 58 11 14 23 22 26 19 4 -3 9 -42 12 -85 6
-69 4 -86 -16 -132 -25 -58 -58 -82 -110 -82 -61 0 -110 55 -110 125 0 69 30
101 113 119 15 4 27 13 27 21 0 34 -87 4 -127 -43 -27 -32 -34 -26 -40 31 -9
79 37 177 82 177 26 0 66 -44 85 -95 l12 -30 19 24 c18 22 18 24 1 53 -37 65
-104 94 -154 67 -49 -26 -85 85 -43 131 24 26 57 6 48 -28 -6 -27 30 -72 59
-72 20 0 24 15 7 26 -7 4 -9 24 -6 50 4 37 2 44 -13 44 -9 0 -24 8 -33 18 -16
17 -34 72 -23 72 3 0 44 -21 92 -47z m1354 6 c0 -22 -22 -49 -51 -64 l-30 -16
25 -20 c28 -22 33 -56 15 -91 -16 -30 -3 -33 25 -5 27 27 34 73 17 105 -13 25
12 56 37 48 24 -8 52 -63 52 -100 0 -39 -23 -88 -59 -124 l-32 -32 37 3 c44 2
53 -14 25 -42 -30 -30 -54 -26 -75 13 -36 67 -134 87 -241 50 -58 -20 -141
-22 -174 -5 -32 17 -61 70 -61 111 0 37 15 65 58 112 l25 27 21 -42 c14 -28
33 -48 57 -59 38 -18 64 -50 75 -92 4 -16 13 -26 24 -26 30 0 32 30 6 75 l-25
42 31 23 c26 19 30 20 25 5 -9 -22 9 -89 28 -105 13 -11 14 -5 9 47 -10 91 22
135 116 164 36 10 40 10 40 -2z m-976 -114 c3 -8 25 -24 49 -35 39 -19 45 -25
56 -73 8 -28 27 -86 44 -127 86 -209 277 -273 506 -169 76 35 82 36 47 8 -23
-18 -26 -28 -26 -80 0 -71 -14 -103 -69 -152 -103 -93 -289 -146 -440 -126
-66 9 -150 48 -209 97 l-33 28 40 -4 c82 -8 198 75 251 178 29 58 20 73 -12
19 -31 -53 -116 -135 -155 -150 -45 -17 -110 -13 -146 10 l-32 21 51 0 c71 0
159 46 223 116 71 77 64 99 -7 26 -104 -105 -211 -138 -266 -82 -33 32 -28
140 8 214 15 31 35 60 44 66 46 26 46 27 19 52 -27 24 -30 34 -28 80 1 26 54
98 71 98 4 0 10 -7 14 -15z m846 -440 c25 3 72 7 105 8 54 2 60 0 60 -18 0
-19 -6 -20 -105 -17 -144 4 -150 2 -150 -51 0 -62 31 -103 105 -136 59 -27 69
-43 62 -102 -18 -148 -166 -293 -281 -275 -64 11 -111 44 -173 123 -31 40 -61
73 -65 73 -20 0 -5 19 20 25 87 22 187 97 224 170 11 22 34 55 49 73 35 40 43
70 36 127 l-6 44 37 -25 c31 -22 44 -25 82 -19z m270 -44 c0 -14 -74 -105
-105 -130 -20 -15 -42 -21 -76 -21 -56 0 -98 30 -130 91 l-19 39 23 5 c12 3
43 1 67 -4 66 -15 119 -12 170 9 51 21 70 24 70 11z m-1298 -111 c6 0 38 -24
71 -53 85 -74 122 -100 195 -137 l63 -33 -72 -39 c-40 -22 -85 -47 -99 -57
-40 -28 -107 -51 -149 -51 -34 0 -38 3 -34 20 4 14 0 20 -12 20 -13 0 -16 -6
-12 -21 5 -19 3 -21 -26 -15 -107 22 -214 105 -247 194 -25 66 -25 115 0 171
17 37 23 42 43 37 60 -18 93 -17 137 6 l45 23 44 -32 c24 -18 48 -33 53 -33z
m769 -94 c-33 -35 -110 -74 -182 -91 -69 -16 -196 -20 -217 -6 -7 4 27 8 80 9
109 1 185 22 273 75 71 43 75 44 46 13z m-344 -147 c27 -10 26 -11 -37 -32
-36 -13 -109 -51 -163 -85 -54 -35 -117 -70 -140 -79 -84 -30 -198 -15 -236
30 -10 13 -7 13 26 1 88 -31 175 -9 310 78 141 92 186 108 240 87z m90 -54
c48 -34 28 -89 -24 -66 -23 10 -29 10 -39 -3 -6 -9 -9 -27 -7 -40 4 -17 -3
-32 -20 -50 -48 -48 -144 -46 -199 3 l-32 28 65 48 c117 87 206 115 256 80z
m214 -135 c21 -11 47 -20 59 -20 11 0 20 -5 20 -11 0 -6 -11 -8 -27 -5 -16 2
-46 8 -68 11 -88 15 -146 61 -138 112 l5 33 55 -51 c31 -27 73 -59 94 -69z
m-151 -38 c14 -10 -47 -43 -74 -40 -38 4 -45 31 -21 78 l17 32 36 -33 c20 -19
39 -36 42 -37z m569 43 c67 -34 47 -117 -23 -99 -14 3 -27 12 -30 19 -7 19 19
38 44 30 11 -4 20 -2 20 4 0 15 -53 14 -68 -1 -7 -7 -12 -20 -12 -30 0 -12 -7
-18 -22 -17 -13 0 -17 3 -10 6 6 2 12 17 12 32 0 36 19 60 58 70 2 1 16 -6 31
-14z m-108 -5 c5 0 9 -8 9 -19 0 -20 -47 -45 -74 -39 -13 3 -13 5 0 23 13 17
16 18 24 5 5 -8 13 -11 17 -6 4 5 2 11 -4 13 -7 3 -13 12 -13 20 0 10 6 13 16
9 9 -3 20 -6 25 -6z"/>
<path d="M1160 2137 c0 -13 9 -32 20 -42 18 -16 20 -16 26 -1 7 17 -20 66 -36
66 -6 0 -10 -11 -10 -23z"/>
<path d="M1230 1799 c0 -24 23 -21 28 4 2 10 -3 17 -12 17 -10 0 -16 -9 -16
-21z"/>
<path d="M1335 1800 c-12 -19 -68 -42 -102 -42 -22 0 -43 8 -59 23 -13 12 -27
19 -31 15 -11 -11 44 -56 70 -57 65 -3 119 17 137 51 11 20 -3 29 -15 10z"/>
<path d="M1332 1752 c-49 -38 -116 -41 -164 -8 -43 28 -62 18 -23 -13 55 -42
145 -38 199 9 40 36 31 46 -12 12z"/>
<path d="M1330 1714 c-57 -31 -132 -32 -178 -4 -40 24 -49 25 -31 3 50 -59
205 -53 258 10 18 22 6 20 -49 -9z"/>
<path d="M1344 1651 c-37 -17 -54 -36 -54 -62 0 -16 16 -10 56 22 35 28 44 31
92 27 46 -4 51 -3 39 9 -24 24 -87 26 -133 4z"/>
<path d="M1014 1640 c-42 -17 -32 -25 26 -22 44 3 67 -1 100 -18 43 -22 56
-21 47 3 -14 36 -120 59 -173 37z"/>
<path d="M1354 1577 c-24 -21 -27 -29 -18 -44 17 -28 79 -29 101 -2 10 12 27
30 37 40 20 19 20 19 0 19 -10 0 -35 3 -55 6 -29 5 -41 1 -65 -19z m86 -22 c0
-16 -30 -35 -57 -35 -26 0 -47 16 -38 30 5 8 12 7 25 -5 19 -17 50 -11 50 11
0 8 5 14 10 14 6 0 10 -7 10 -15z"/>
<path d="M1050 1575 c-19 -7 -41 -10 -47 -7 -7 2 -13 -1 -13 -7 0 -6 5 -11 10
-11 6 0 21 -12 34 -27 17 -20 33 -27 60 -27 20 0 41 5 47 11 8 8 1 10 -27 6
-46 -5 -87 17 -67 37 8 9 14 7 22 -9 14 -25 49 -28 58 -5 4 12 7 13 14 3 4 -8
11 -10 15 -6 11 10 -24 44 -50 49 -12 3 -38 -1 -56 -7z"/>
<path d="M1234 1435 c-4 -9 -2 -21 4 -27 15 -15 44 -1 40 19 -4 23 -36 29 -44
8z"/>
<path d="M1234 1326 c-16 -64 26 -199 82 -265 54 -63 105 -86 189 -85 69 0
198 34 210 55 9 14 -14 11 -85 -12 -126 -40 -227 -21 -284 53 -28 38 -66 143
-67 190 -2 73 -32 115 -45 64z"/>
<path d="M500 1605 c0 -8 16 -36 36 -62 l37 -48 -8 35 c-4 19 -14 47 -21 63
-15 29 -44 37 -44 12z"/>
<path d="M1480 1260 c-24 -24 -25 -32 -6 -69 18 -34 54 -51 110 -51 70 0 72
17 12 83 -57 62 -83 70 -116 37z m95 -60 c32 -33 36 -40 20 -40 -32 0 -85 38
-85 60 0 31 22 24 65 -20z"/>
<path d="M977 1204 c-25 -25 8 -70 43 -59 32 10 24 59 -10 63 -14 2 -29 0 -33
-4z"/>
<path d="M1239 611 c-22 -18 -23 -20 -6 -27 23 -9 56 21 41 36 -8 8 -18 5 -35
-9z"/>
<path d="M1405 440 c-4 -6 -1 -17 5 -26 15 -18 42 0 33 22 -6 16 -29 19 -38 4z"/>
<path d="M1435 390 c-4 -7 -3 -16 3 -22 14 -14 45 -2 40 15 -6 16 -34 21 -43
7z"/>
<path d="M1475 340 c-4 -7 -3 -16 3 -22 14 -14 45 -2 40 15 -6 16 -34 21 -43
7z"/>
<path d="M1747 334 c-8 -8 1 -24 14 -24 5 0 9 7 9 15 0 15 -12 20 -23 9z"/>
<path d="M1525 300 c-8 -13 3 -30 20 -30 14 0 27 24 18 34 -10 9 -31 7 -38 -4z"/>
<path d="M1710 300 c0 -5 -7 -10 -15 -10 -8 0 -15 -7 -15 -15 0 -8 5 -15 10
-15 6 0 13 7 16 15 4 8 12 15 20 15 8 0 14 5 14 10 0 6 -7 10 -15 10 -8 0 -15
-4 -15 -10z"/>
<path d="M1585 280 c-7 -12 2 -30 16 -30 5 0 9 9 9 20 0 21 -15 27 -25 10z"/>
<path d="M1632 268 c5 -15 28 -18 29 -3 0 6 -7 12 -17 13 -10 3 -15 -1 -12
-10z"/>
<path d="M1007 454 c-14 -15 -6 -34 14 -34 14 0 19 5 17 17 -3 18 -20 27 -31
17z"/>
<path d="M951 416 c-8 -10 -7 -17 3 -26 17 -13 36 -6 36 15 0 19 -27 26 -39
11z"/>
<path d="M894 379 c-9 -15 11 -33 30 -26 9 4 13 13 10 22 -7 17 -30 20 -40 4z"/>
<path d="M617 374 c-8 -8 1 -24 14 -24 5 0 9 7 9 15 0 15 -12 20 -23 9z"/>
<path d="M650 345 c0 -8 5 -15 10 -15 6 0 10 7 10 15 0 8 -4 15 -10 15 -5 0
-10 -7 -10 -15z"/>
<path d="M832 343 c2 -10 10 -18 18 -18 8 0 16 8 18 18 2 12 -3 17 -18 17 -15
0 -20 -5 -18 -17z"/>
<path d="M685 339 c-10 -15 1 -23 20 -15 9 3 13 10 10 16 -8 13 -22 13 -30 -1z"/>
<path d="M787 343 c-4 -3 -7 -12 -7 -20 0 -15 26 -18 34 -4 7 11 -18 33 -27
24z"/>
<path d="M390 1744 c0 -14 3 -14 15 -4 8 7 15 14 15 16 0 2 -7 4 -15 4 -8 0
-15 -7 -15 -16z"/>
<path d="M413 1735 c-20 -14 -38 -55 -24 -55 4 0 18 11 31 25 13 14 32 25 42
25 10 0 18 5 18 10 0 15 -43 12 -67 -5z"/>
</g>
</svg>
